<svg width="102" height="102" viewBox="0 0 102 102" fill="none" xmlns="http://www.w3.org/2000/svg">
<path d="M51 8.5C27.54 8.5 8.5 27.54 8.5 51C8.5 74.46 27.54 93.5 51 93.5C74.46 93.5 93.5 74.46 93.5 51C93.5 27.54 74.46 8.5 51 8.5ZM70.72 37.4C70.0825 44.115 67.32 60.435 65.9175 67.9575C65.3225 71.145 64.1325 72.2075 63.0275 72.335C60.5625 72.5475 58.6925 70.72 56.3125 69.1475C52.5725 66.6825 50.4475 65.1525 46.835 62.7725C42.6275 60.01 45.3475 58.48 47.77 56.015C48.4075 55.3775 59.2875 45.475 59.5 44.5825C59.5295 44.4473 59.5256 44.307 59.4886 44.1737C59.4515 44.0403 59.3825 43.9181 59.2875 43.8175C59.0325 43.605 58.6925 43.69 58.395 43.7325C58.0125 43.8175 52.0625 47.77 40.46 55.59C38.76 56.7375 37.23 57.3325 35.87 57.29C34.34 57.2475 31.45 56.44 29.2825 55.7175C26.605 54.8675 24.5225 54.4 24.6925 52.9125C24.7775 52.1475 25.84 51.3825 27.8375 50.575C40.2475 45.1775 48.4925 41.6075 52.615 39.9075C64.43 34.9775 66.8525 34.1275 68.4675 34.1275C68.8075 34.1275 69.615 34.2125 70.125 34.6375C70.55 34.9775 70.6775 35.445 70.72 35.785C70.6775 36.04 70.7625 36.805 70.72 37.4Z" fill="white"/>
</svg>
